<svg id="Layer_1" data-name="Layer 1" xmlns="http://www.w3.org/2000/svg" viewBox="0 0 1600 900.37" preserveAspectRatio="none">

<!-- file name -->    
<title>logo</title>

<!-- M layer white space --> 
    <g id="M">
<!--         <polygon points="1600 0 1200 450.14 800 0 1600 0" fill="#4202da" />
 -->
<!-- envelope icon	--> 
        <!-- <g id="Envelope">
      <path d="M1096,95.93V243.49h207.92V95.93Zm197.19,6.71-93.56,93.23L1106,102.64ZM1102.66,236.78V108.67l96.92,96.59L1297.16,108V236.78Z" transform="translate(1 0.37)" fill="white" opacity="1"/>
		</g> -->

<!-- M layer fill space --> 
        <polyline id="M-2" data-name="M" points="800 900.37 800 0 1200 450.14 1600 0 1600 900.37" fill="white" opacity="1" />
    </g>

<!-- K layer white space --> 

    <g id="K">
<!--     	<polygon points="799.85 900.37 73.31 451.44 799.85 1.37 799.85 900.37" fill="#4202da"/>
 -->
<!-- K layer text --> 
<!--         <g>
            <path d="M603,203.23h10l-27.45,27.45,27.94,33.62H603.12l-23-28.43L577,238.78V264.3h-7.61V203.23H577v26.48Z" transform="translate(1 0.37)" fill="#fff" />
            <path d="M648.84,264.3h-7.29v-5.92h-.16a15.54,15.54,0,0,1-12.88,7.21c-11.58,0-18.14-9.64-18.14-20.49,0-10.37,6.88-19.84,17.9-19.84,5.58,0,10.12,2.91,13.12,7.45h.16v-6.32h7.29Zm-6.89-19c0-7.37-4.45-13.6-12.31-13.6-7.53,0-12,6.56-12,13.6s4.29,13.77,12,13.77C637.58,259.11,642,252.79,642,245.34Z" transform="translate(1 0.37)" fill="#fff" />
            <path d="M664.65,264.3h-7.29V233.19h-4v-6.8h4v-14.5h7.29v14.5h7.13v6.8h-7.13Z" transform="translate(1 0.37)" fill="#fff" />
            <path d="M678.85,246.56c.08,6.48,4.45,12.55,11.42,12.55,5.59,0,8.59-2.83,11.34-7.37l6.15,3.48a19.71,19.71,0,0,1-17.57,10.37c-11.58,0-18.63-8.75-18.63-19.92,0-11.67,6.24-20.41,18.47-20.41,12.07,0,17.73,8.91,17.73,20.16v1.14Zm21.63-5.51c-.9-5.67-4.62-9.48-10.45-9.48-5.67,0-9.88,4.05-10.78,9.48Z" transform="translate(1 0.37)" fill="#fff" />
            <path d="M720.13,264.3h-7.29V194h7.29Z" transform="translate(1 0.37)" fill="#fff" />
            <path d="M722.69,226.39h8.51L744,250.45l11.9-24.06h8.18L733.39,286h-8.27L740,257.82Z" transform="translate(1 0.37)" fill="#fff" />
            <path d="M773.8,231.49H774a12.92,12.92,0,0,1,11.42-6.23c10.69,0,13.44,7.2,13.44,16.44v22.6h-7.29V242.59c0-6.48-.89-10.85-8.34-10.85-9.4,0-9.4,8.26-9.4,15.14V264.3h-7.29V226.39h7.29Z" transform="translate(1 0.37)" fill="#fff" />
            <path d="M396.76,328h-.16l-7.13,40.34h-7.85l12.47-63.67,21,48.11,21-48.11,12.48,63.67h-7.86L433.53,328h-.16l-18.3,41.63Z" transform="translate(1 0.37)" fill="#fff" />
            <path d="M462.43,313.06a5,5,0,0,1-10,0,5,5,0,1,1,10,0Zm-1.38,55.24h-7.29V330.39h7.29Z" transform="translate(1 0.37)" fill="#fff" />
            <path d="M476.77,336.55H477a10.9,10.9,0,0,1,10.37-7.29,11.39,11.39,0,0,1,6,1.86l-3.32,6.64a6.39,6.39,0,0,0-4.45-1.54c-7.86,0-8.83,7.29-8.83,13.45V368.3h-7.29V330.39h7.29Z" transform="translate(1 0.37)" fill="#fff" />
            <path d="M530,368.3h-7.28v-5.92h-.17a15.5,15.5,0,0,1-12.87,7.21c-11.59,0-18.15-9.64-18.15-20.49,0-10.37,6.89-19.84,17.9-19.84,5.59,0,10.13,2.91,13.12,7.45h.17v-6.32H530Zm-6.88-19c0-7.37-4.45-13.6-12.31-13.6-7.53,0-12,6.56-12,13.6s4.3,13.77,12,13.77C518.71,363.11,523.08,356.79,523.08,349.34Z" transform="translate(1 0.37)" fill="#fff" />
            <path d="M537,298h7.28v38.72h.17a15.52,15.52,0,0,1,13.2-7.45c10.93,0,17.82,9.47,17.82,19.84,0,10.85-6.48,20.49-18.15,20.49a15.61,15.61,0,0,1-12.87-7.21h-.17v5.92H537Zm31.18,51.35c0-7.37-4.46-13.6-12.31-13.6-7.54,0-12,6.56-12,13.6s4.29,13.77,12,13.77C563.82,363.11,568.2,356.79,568.2,349.34Z" transform="translate(1 0.37)" fill="#fff" />
            <path d="M585.74,350.56c.09,6.48,4.46,12.55,11.42,12.55,5.59,0,8.59-2.83,11.34-7.37l6.16,3.48a19.73,19.73,0,0,1-17.58,10.37c-11.58,0-18.62-8.75-18.62-19.92,0-11.67,6.23-20.41,18.46-20.41,12.07,0,17.74,8.91,17.74,20.16v1.14Zm21.63-5.51c-.89-5.67-4.62-9.48-10.45-9.48-5.67,0-9.88,4.05-10.77,9.48Z" transform="translate(1 0.37)" fill="#fff" />
            <path d="M627,368.3h-7.29V298H627Z" transform="translate(1 0.37)" fill="#fff" />
            <path d="M642.05,368.3h-7.29V298h7.29Z" transform="translate(1 0.37)" fill="#fff" />
            <path d="M659.13,313.06a5,5,0,0,1-10,0,5,5,0,1,1,10,0Zm-1.37,55.24h-7.29V330.39h7.29Z" transform="translate(1 0.37)" fill="#fff" />
            <path d="M703.12,313.06a5,5,0,0,1-10,0,5,5,0,1,1,10,0Zm-1.38,55.24h-7.29V330.39h7.29Z" transform="translate(1 0.37)" fill="#fff" />
            <path d="M724.56,339.06a5.6,5.6,0,0,0-4.86-3.32,3.93,3.93,0,0,0-4,3.72c0,3.32,4.37,4.78,8.83,6.81S733.3,351,733.3,357c0,7.21-6,12.55-13,12.55-5.5,0-11.09-3.16-13.12-8.5l6.24-2.84c1.54,2.84,3.4,4.86,6.88,4.86,3.08,0,5.75-2.1,5.75-5.34,0-2-1-3-2.67-4.13l-7.13-3.81c-4.21-2.27-7.29-4.37-7.29-9.56a11.07,11.07,0,0,1,11.18-11,11.28,11.28,0,0,1,10.37,6.64Z" transform="translate(1 0.37)" fill="#fff" />
            <path d="M799.4,368.3h-7.29v-5.92H792a15.54,15.54,0,0,1-12.88,7.21c-11.58,0-18.15-9.64-18.15-20.49,0-10.37,6.89-19.84,17.9-19.84,5.59,0,10.13,2.91,13.13,7.45h.16v-6.32h7.29Zm-6.89-19c0-7.37-4.45-13.6-12.31-13.6-7.53,0-12,6.56-12,13.6s4.3,13.77,12,13.77C788.14,363.11,792.51,356.79,792.51,349.34Z" transform="translate(1 0.37)" fill="#fff" />
            <path d="M299.16,471.57c0,13-3.73,22.43-18.47,22.43-10.53,0-18.14-6.48-18.31-17.17h7.29c0,6.8,4.7,10.69,11.34,10.69,9,0,10.86-6.15,10.86-13.93v-7.21h-.17a15.61,15.61,0,0,1-12.87,7.21c-11.67,0-18.15-9.64-18.15-20.49,0-10.37,6.89-19.84,17.82-19.84,5.67,0,10.21,2.91,13.2,7.61h.17v-6.48h7.29Zm-6.89-18.23c0-7.37-4.45-13.6-12.31-13.6-7.53,0-12,6.56-12,13.6s4.3,13.77,12,13.77C287.9,467.11,292.27,460.79,292.27,453.34Z" transform="translate(1 0.37)" fill="#fff" />
            <path d="M314,440.55h.24a10.91,10.91,0,0,1,10.37-7.29,11.42,11.42,0,0,1,6,1.86l-3.33,6.64a6.37,6.37,0,0,0-4.45-1.54c-7.86,0-8.83,7.29-8.83,13.45V472.3h-7.29V434.39H314Z" transform="translate(1 0.37)" fill="#fff" />
            <path d="M367.17,472.3h-7.29v-5.92h-.16a15.52,15.52,0,0,1-12.88,7.21c-11.58,0-18.14-9.64-18.14-20.49,0-10.37,6.88-19.84,17.9-19.84,5.59,0,10.12,2.91,13.12,7.45h.16v-6.32h7.29Zm-6.88-19c0-7.37-4.46-13.6-12.31-13.6-7.54,0-12,6.56-12,13.6s4.29,13.77,12,13.77C355.91,467.11,360.29,460.79,360.29,453.34Z" transform="translate(1 0.37)" fill="#fff" />
            <path d="M381.51,440.71h.16c3-4.54,7.53-7.45,13.2-7.45,10.94,0,17.82,9.47,17.82,19.84,0,10.85-6.48,20.49-18.14,20.49a15.63,15.63,0,0,1-12.88-7.21h-.16V494h-7.29V434.39h7.29Zm23.89,12.63c0-7.37-4.45-13.6-12.31-13.6-7.53,0-12,6.56-12,13.6s4.3,13.77,12,13.77C401,467.11,405.4,460.79,405.4,453.34Z" transform="translate(1 0.37)" fill="#fff" />
            <path d="M425.23,402v37.5h.16a12.92,12.92,0,0,1,11.42-6.23c10.69,0,13.44,7.21,13.44,16.44v22.6H443V450.59c0-6.48-.89-10.85-8.34-10.85-9.39,0-9.39,8.26-9.39,15.14V472.3h-7.29V402Z" transform="translate(1 0.37)" fill="#fff" />
            <path d="M467,417.06a5,5,0,0,1-10,0,5,5,0,1,1,10,0Zm-1.37,55.24H458.3V434.39h7.29Z" transform="translate(1 0.37)" fill="#fff" />
            <path d="M501.86,445.16a13.91,13.91,0,0,0-10.86-5.1c-7.12,0-12.63,6.32-12.63,13.28,0,7.78,5.43,13.45,13.12,13.45,4.21,0,7.61-2,10.37-5v9.31a21.21,21.21,0,0,1-10.45,2.51c-11.18,0-20.33-8.58-20.33-19.92,0-11.75,9.07-20.41,20.73-20.41a20.56,20.56,0,0,1,10.05,2.51Z" transform="translate(1 0.37)" fill="#fff" />
            <path d="M561.39,466.38h-.16a15.63,15.63,0,0,1-12.88,7.21c-11.66,0-18.14-9.64-18.14-20.49,0-10.37,6.88-19.84,17.82-19.84,5.67,0,10.2,2.91,13.2,7.45h.16V402h7.29V472.3h-7.29Zm.41-13c0-7.37-4.46-13.6-12.32-13.6-7.53,0-12,6.56-12,13.6s4.29,13.77,12,13.77C557.42,467.11,561.8,460.79,561.8,453.34Z" transform="translate(1 0.37)" fill="#fff" />
            <path d="M581,454.56c.08,6.48,4.46,12.55,11.42,12.55,5.59,0,8.59-2.83,11.34-7.37l6.16,3.48a19.72,19.72,0,0,1-17.58,10.37c-11.58,0-18.63-8.75-18.63-19.92,0-11.67,6.24-20.41,18.47-20.41,12.07,0,17.74,8.91,17.74,20.16v1.14Zm21.63-5.51c-.89-5.67-4.62-9.48-10.45-9.48-5.67,0-9.88,4.05-10.77,9.48Z" transform="translate(1 0.37)" fill="#fff" />
            <path d="M629.67,443.06a5.62,5.62,0,0,0-4.86-3.32,3.93,3.93,0,0,0-4,3.72c0,3.32,4.37,4.78,8.83,6.81s8.74,4.77,8.74,10.77c0,7.21-6,12.55-13,12.55-5.5,0-11.09-3.16-13.12-8.5l6.24-2.84c1.54,2.84,3.4,4.86,6.88,4.86,3.08,0,5.75-2.1,5.75-5.34,0-2-1-3-2.67-4.13l-7.13-3.81c-4.21-2.27-7.29-4.37-7.29-9.56a11.07,11.07,0,0,1,11.18-11,11.28,11.28,0,0,1,10.37,6.64Z" transform="translate(1 0.37)" fill="#fff" />
            <path d="M652.2,417.06a5,5,0,0,1-10,0,5,5,0,1,1,10,0Zm-1.38,55.24h-7.29V434.39h7.29Z" transform="translate(1 0.37)" fill="#fff" />
            <path d="M694.93,471.57c0,13-3.72,22.43-18.46,22.43-10.53,0-18.15-6.48-18.31-17.17h7.29c0,6.8,4.7,10.69,11.34,10.69,9,0,10.85-6.15,10.85-13.93v-7.21h-.16a15.62,15.62,0,0,1-12.88,7.21c-11.66,0-18.14-9.64-18.14-20.49,0-10.37,6.89-19.84,17.82-19.84,5.67,0,10.2,2.91,13.2,7.61h.16v-6.48h7.29Zm-6.88-18.23c0-7.37-4.46-13.6-12.31-13.6-7.53,0-12,6.56-12,13.6s4.29,13.77,12,13.77C683.67,467.11,688.05,460.79,688.05,453.34Z" transform="translate(1 0.37)" fill="#fff" />
            <path d="M709.53,439.49h.16a12.94,12.94,0,0,1,11.42-6.23c10.69,0,13.45,7.21,13.45,16.44v22.6h-7.29V450.59c0-6.48-.89-10.85-8.34-10.85-9.4,0-9.4,8.26-9.4,15.14V472.3h-7.29V434.39h7.29Z" transform="translate(1 0.37)" fill="#fff" />
            <path d="M747,454.56c.08,6.48,4.46,12.55,11.42,12.55,5.59,0,8.59-2.83,11.34-7.37l6.16,3.48a19.72,19.72,0,0,1-17.58,10.37c-11.58,0-18.63-8.75-18.63-19.92,0-11.67,6.24-20.41,18.47-20.41,12.07,0,17.74,8.91,17.74,20.16v1.14Zm21.63-5.51c-.89-5.67-4.62-9.48-10.45-9.48-5.67,0-9.88,4.05-10.77,9.48Z" transform="translate(1 0.37)" fill="#fff" />
            <path d="M788.22,440.55h.24a10.91,10.91,0,0,1,10.37-7.29,11.42,11.42,0,0,1,6,1.86l-3.33,6.64a6.37,6.37,0,0,0-4.45-1.54c-7.86,0-8.83,7.29-8.83,13.45V472.3h-7.29V434.39h7.29Z" transform="translate(1 0.37)" fill="#fff" />
            <path d="M345.41,506h7.29v38.72h.16c3-4.54,7.53-7.45,13.2-7.45,10.94,0,17.82,9.47,17.82,19.84,0,10.85-6.48,20.49-18.14,20.49a15.63,15.63,0,0,1-12.88-7.21h-.16v5.92h-7.29Zm31.18,51.35c0-7.37-4.45-13.6-12.31-13.6-7.53,0-12,6.56-12,13.6s4.3,13.77,12,13.77C372.22,571.11,376.59,564.79,376.59,557.34Z" transform="translate(1 0.37)" fill="#fff" />
            <path d="M425.32,576.3H418v-5.92h-.16A15.52,15.52,0,0,1,405,577.59c-11.58,0-18.14-9.64-18.14-20.49,0-10.37,6.88-19.84,17.9-19.84,5.59,0,10.12,2.91,13.12,7.45H418v-6.32h7.29Zm-6.88-19c0-7.37-4.46-13.6-12.31-13.6-7.54,0-12,6.56-12,13.6s4.29,13.77,12,13.77C414.06,571.11,418.44,564.79,418.44,557.34Z" transform="translate(1 0.37)" fill="#fff" />
            <path d="M447.27,547.06a5.59,5.59,0,0,0-4.85-3.32,3.93,3.93,0,0,0-4,3.72c0,3.32,4.37,4.78,8.82,6.81S456,559,456,565c0,7.21-6,12.55-13,12.55-5.51,0-11.09-3.16-13.12-8.5l6.24-2.84c1.54,2.84,3.4,4.86,6.88,4.86,3.08,0,5.75-2.1,5.75-5.34,0-2-1-3-2.67-4.13l-7.13-3.81c-4.21-2.27-7.29-4.37-7.29-9.56a11.06,11.06,0,0,1,11.18-11,11.28,11.28,0,0,1,10.37,6.64Z" transform="translate(1 0.37)" fill="#fff" />
            <path d="M465.63,558.56c.08,6.48,4.45,12.55,11.42,12.55,5.59,0,8.58-2.83,11.34-7.37l6.15,3.48A19.69,19.69,0,0,1,477,577.59c-11.58,0-18.63-8.75-18.63-19.92,0-11.67,6.24-20.41,18.47-20.41,12.06,0,17.73,8.91,17.73,20.16v1.14Zm21.62-5.51c-.89-5.67-4.61-9.48-10.44-9.48A10.85,10.85,0,0,0,466,553.05Z" transform="translate(1 0.37)" fill="#fff" />
            <path d="M528.11,570.38H528a15.63,15.63,0,0,1-12.88,7.21c-11.66,0-18.14-9.64-18.14-20.49,0-10.37,6.88-19.84,17.82-19.84,5.67,0,10.2,2.91,13.2,7.45h.16V506h7.29V576.3h-7.29Zm.4-13c0-7.37-4.45-13.6-12.31-13.6-7.53,0-12,6.56-12,13.6s4.29,13.77,12,13.77C524.14,571.11,528.51,564.79,528.51,557.34Z" transform="translate(1 0.37)" fill="#fff" />
            <path d="M578.57,521.06a5,5,0,0,1-10,0,5,5,0,1,1,10,0ZM577.2,576.3h-7.29V538.39h7.29Z" transform="translate(1 0.37)" fill="#fff" />
            <path d="M592.69,543.49h.16a12.94,12.94,0,0,1,11.42-6.23c10.69,0,13.45,7.21,13.45,16.44v22.6h-7.29V554.59c0-6.48-.89-10.85-8.34-10.85-9.4,0-9.4,8.26-9.4,15.14V576.3H585.4V538.39h7.29Z" transform="translate(1 0.37)" fill="#fff" />
            <path d="M651.25,512.31l45.85,48V515.23h7.61v63.58l-45.84-48V576.3h-7.62Z" transform="translate(1 0.37)" fill="#fff" />
            <path d="M717.83,558.56c.08,6.48,4.45,12.55,11.42,12.55,5.58,0,8.58-2.83,11.33-7.37l6.16,3.48a19.69,19.69,0,0,1-17.57,10.37c-11.59,0-18.63-8.75-18.63-19.92,0-11.67,6.23-20.41,18.46-20.41,12.07,0,17.74,8.91,17.74,20.16v1.14Zm21.62-5.51c-.89-5.67-4.62-9.48-10.45-9.48-5.67,0-9.88,4-10.77,9.48Z" transform="translate(1 0.37)" fill="#fff" />
            <path d="M763.68,562.53l11.18-26.24L786,562.53l11-24.14h8.26L786,577.59l-11.09-25.35-11.18,25.35-19.28-39.2h8.26Z" transform="translate(1 0.37)" fill="#fff" />
            <path d="M509.82,619.23h8.75l15,26.08,15-26.08h8.74l-19.92,34.5V680.3h-7.61V653.73Z" transform="translate(1 0.37)" fill="#fff" />
            <path d="M589.78,661.42a20.25,20.25,0,1,1-20.25-20.16A19.94,19.94,0,0,1,589.78,661.42Zm-33.21,0a13,13,0,1,0,13-13.2A13.16,13.16,0,0,0,556.57,661.42Z" transform="translate(1 0.37)" fill="#fff" />
            <path d="M602.18,648.55h.24a10.9,10.9,0,0,1,10.37-7.29,11.39,11.39,0,0,1,6,1.86l-3.32,6.64a6.4,6.4,0,0,0-4.46-1.54c-7.85,0-8.82,7.29-8.82,13.45V680.3h-7.29V642.39h7.29Z" transform="translate(1 0.37)" fill="#fff" />
            <path d="M628.75,656.65,643,642.39h9.64l-16.2,15.71,17.82,22.2h-9.48L631.26,663l-2.51,2.51V680.3h-7.29V610h7.29Z" transform="translate(1 0.37)" fill="#fff" />
            <path d="M727.08,630.89a24.66,24.66,0,0,0-16.12-6c-13.68,0-24.13,11.42-24.13,24.94s10.36,24.79,24,24.79a24.43,24.43,0,0,0,16.28-6.32v9a33.06,33.06,0,0,1-16,4.29,31.61,31.61,0,0,1-31.83-31.51,32.1,32.1,0,0,1,32.48-32.15,29.51,29.51,0,0,1,15.39,4.13Z" transform="translate(1 0.37)" fill="#fff" />
            <path d="M741.61,625.06a5,5,0,0,1-10.05,0,5,5,0,1,1,10.05,0Zm-1.38,55.24h-7.29V642.39h7.29Z" transform="translate(1 0.37)" fill="#fff" />
            <path d="M756.78,680.3h-7.29V649.19h-4v-6.8h4v-14.5h7.29v14.5h7.13v6.8h-7.13Z" transform="translate(1 0.37)" fill="#fff" />
            <path d="M763.6,642.39h8.5l12.8,24.06,11.91-24.06H805L774.29,702H766l14.9-28.18Z" transform="translate(1 0.37)" fill="#fff" />
        </g> -->
<!-- K layer fill space --> 
<!--     <polygon id="K-2" data-name="K" points="808.72 0 5 0 5 408.4 0 499.93 5 907.07 809.73 907.07 79.68 454.11 808.72 0" fill="white" opacity="1"/> -->
<!--     <polygon id="K-2" data-name="K" points="799.85 0 0 0 0 406.57 0 497.69 0 903 799.85 903 73.31 452.07 799.85 0" fill="white" opacity="1"/> -->
<!--     <polygon id="K-2" data-name="K" points="808.72 0 5 1 5 407.4 0 498.93 5 904.07 809.73 904.07 79.68 452.11 808.72 0" fill="white" opacity="1"/> -->
    <polygon id="K-2" data-name="K" points="800.57 0 0 0 0 902.86 800.57 904.07 70.53 451.1 800.57 0" fill="white" opacity="1"/>
    </g>
</svg>